<svg xmlns="http://www.w3.org/2000/svg" width="64" height="64" viewBox="0 0 64 64">
  <rect x="4" y="4" width="56" height="56" rx="14" fill="#111111"/>
  <path d="M14 43V20h7v17h13v6H14Z" fill="#f4f1ea"/>
  <path d="M38 20c-8 0-14 5-14 12s6 12 14 12c4 0 8-1 11-4l-4-5c-2 2-4 2-7 2-4 0-7-2-7-5s3-5 7-5c3 0 5 1 7 2l4-5c-3-3-7-4-11-4Z" fill="#ff6b35"/>
  <path d="M39 20h7l5 11 5-11h7v23h-7V31l-5 10h-1l-5-10v12h-6V20Z" fill="#f4f1ea" transform="translate(-8 0)"/>
  <rect x="25" y="49" width="15" height="2.8" rx="1.4" fill="#ff6b35"/>
</svg>
